Patient4_TMGait_0pt5_02_left_29_EMG.mot
version=1
nRows=16
nColumns=33
inDegrees=no
endheader
time	1LAddLong	2LGlutMax	3LGlutMed	4LIliopsoas	5LSemiMemb	6LBicFemLong	7LRecFem	8LVastMed	9LVastLat	10LGasMed	11LTibAnt	12lTibPost	13LPeroneusLong	14LSol	15LExtDigLong	16LFlexDigLong	17RAddLong	18RGlutMax	19RGlutMed	20RIliopsoas	21RSemiMemb	22RBicFemLong	23RRecFem	24RVastMed	25RVastLat	26RGasMed	27RTibAnt	28RTibPost	29RPeroneusLong	30RSol	31RExtDigLong	32RFlexDigLong
38.075	0.044861	0.04837	0.13825	-0.010681	0.004883	-0.063324	0.16312	0.004272	-0.025635	-0.006714	0.037842	-0.000763	-0.028076	0.003662	0.30182	-0.003204	-0.11017	0.074615	0.9375	-0.32349	0.29098	0.15656	-0.57236	0.31204	0.19043	-0.013885	0.086823	-0.002747	-0.2652	0.053406	-0.002747	-0.012207
38.076	0.01236	0.053864	0.10071	0.001831	-0.002899	-0.075989	0.14465	0.004272	-0.0177	-0.012054	-0.006256	-0.011749	0.071869	0.072327	0.32227	0.002899	0.030823	0.040436	0.96176	-0.14801	0.46051	0.015411	-0.41306	0.099487	0.14694	-0.010376	0.027161	0.00412	-0.2739	0.019226	-0.004883	-0.006714
38.077	0	0.031281	0.094757	0.009003	-0.015259	-0.049286	0.15121	0.00473	-0.014343	-0.10849	-0.18784	0.001221	0.23178	0.21027	0.15518	0.020599	0.06134	-0.026245	0.38132	0.067291	0.27802	-0.12787	-0.26321	0.10132	0.079498	-0.008392	-0.002441	0.000763	0.14206	-0.011292	-0.003357	-0.007477
38.078	0.006561	0.020294	0.079041	0.012665	-0.01236	-0.045471	0.1683	0.006561	-0.013733	-0.090637	-0.16068	-0.012512	0.11261	0.27191	0.31815	0.010681	0.1387	-0.0177	0.11719	0.2594	0.12817	-0.38391	-0.17288	0.14923	0.001678	0.008392	-0.016479	0.006714	-0.051422	0.019379	-0.001678	-0.00824
38.079	-0.006866	0.057831	0.042267	0.027161	-0.011444	-0.055084	0.16571	0.000305	-0.016937	-0.084534	0.012817	-0.015717	-0.019836	0.26062	0.13519	-0.000305	0.2005	0.011902	0.040436	0.3418	0.40146	-0.36438	-0.1622	0.11124	-0.019226	0.006256	-0.10635	0.00351	-0.28534	0.014038	-0.003815	-0.012207
38.08	-0.006561	0.041504	0.025635	0.000305	0.000305	-0.094147	0.12741	-0.010681	-0.011444	-0.097198	0.16159	-0.006409	-0.032043	0.20721	0.015411	-0.004272	0.2832	0.1358	0.00351	0.20981	0.58792	-0.25757	-0.13855	0.001831	-0.048676	0.003052	-0.13046	0.008545	-0.17685	-0.09201	-0.003967	-0.005493
38.081	-0.003357	0.022125	0.006409	-0.013885	0.019379	-0.066986	0.12268	-0.004883	-0.018311	-0.076141	0.17044	0.015869	-0.11414	0.18433	-0.18326	-0.000458	0.27268	0.21942	-0.103	0.1152	0.42847	-0.065613	-0.16525	-0.1181	-0.05188	-0.012665	-0.018005	0.006866	0.40436	-0.11475	-0.008087	-0.004272
38.082	-0.004578	0.012817	-0.045471	0.017395	0.012512	-0.064392	0.12451	0.005798	-0.020752	-0.062561	0.11505	0.003662	-0.12985	0.12543	-0.59631	-0.00885	0.15823	0.19959	-0.44342	0.06485	-0.009003	0.17273	-0.19592	-0.12787	-0.034027	-0.018463	0.13733	0.007172	0.66666	-0.059662	-0.006561	-0.003357
38.083	-0.004883	0.031433	-0.046997	0.005493	0.023346	0.06485	0.10239	0.005493	-0.010834	-0.085449	0.02121	0.019531	-0.043335	0.046234	-0.65018	-0.011902	-0.093689	0.23071	-0.1857	0.039368	-0.8548	0.77713	-0.25482	0.033569	-0.018768	-0.019836	0.27573	0.007019	-0.35645	-0.062103	0.004578	-0.001068
38.084	-0.005341	0.025177	-0.092621	0.012665	0.006409	0.057678	0.080109	0.001831	-0.006866	-0.065613	-0.02121	-0.002136	0.093231	0.027008	-0.18417	0.002136	-0.21545	0.23712	0.2063	-0.029907	-0.66986	1.0687	-0.24521	0.001221	-0.011444	-0.010376	0.36865	0.006866	-0.65765	-0.049133	-0.005951	0.00473
38.085	-0.006714	0.028076	-0.12375	-0.008545	-0.011139	0.045929	0.058594	0.003204	-0.014801	0.011749	-0.12909	-0.004425	0.13428	-0.08728	-0.1796	0.010834	-0.2124	0.15717	0.48691	-0.036011	0.19806	1.0078	-0.14725	0.19775	-0.021057	0.010529	0.21225	0.000458	-1.0556	-0.092163	-0.005951	0.000916
38.086	-0.002136	0.054169	-0.16113	0.005493	-0.000458	0.015259	0.045776	0.00061	-0.028381	0.20752	-0.042267	-0.004578	0.05188	-0.19165	0.3508	-0.000763	-0.14832	0.13336	0.59464	-0.074005	0.67261	0.91141	0.016174	0.058441	-0.070343	0.009155	-0.16632	-0.008545	-0.25024	-0.013733	-0.010223	-0.007782
38.087	0.000763	0.068054	-0.17273	0.008545	-0.021667	-0.016022	0.052032	0.004272	-0.030212	0.31815	0.13306	-0.008392	0.014038	0.015411	-0.004883	0.001678	-0.10986	0.1445	0.62042	-0.11536	0.42068	0.59876	0.030212	-0.1857	-0.10223	-0.022583	-0.16098	-0.008392	0.18494	0.012207	-0.003052	-0.007019
38.088	0.00885	0.10986	-0.14801	0.005646	-0.025482	-0.04303	0.012512	-0.001221	-0.032043	0.33707	0.18265	-0.001373	0.1033	0.10346	0.092163	0.010834	-0.081329	0.11719	0.69183	-0.1033	0.1651	0.23056	0.074158	-0.024109	-0.16708	-0.029755	-0.17548	-0.008698	0.23178	0.009155	-0.003967	-0.010986
38.089	0.005646	0.10544	-0.19791	0.009003	-0.020294	-0.025482	0.002441	0.001526	-0.035553	0.61661	0.26276	0.005493	-0.015564	0.031433	0.56061	-0.012512	-0.065155	0.018311	-0.007629	-0.032349	-0.28137	0.06073	0.002289	0.11292	-0.15076	-0.026093	-0.18707	-0.006866	0.53177	-0.015717	-0.00061	-0.007477
38.09	-0.006714	0.16205	-0.22354	0.017242	0	0.032349	0.01358	-0.002747	-0.052948	0.78705	-0.052338	-0.002289	-0.058441	-0.049744	0.22659	-0.006561	-0.087738	-0.007935	-0.10071	-0.042267	-0.23025	0.073242	0.0737	0.28473	-0.15259	0.004272	-0.074463	-0.01297	0.4599	-0.018768	-0.00473	-0.011444
